<svg id="visual" viewBox="0 0 900 600" width="900" height="600" xmlns="http://www.w3.org/2000/svg" xmlns:xlink="http://www.w3.org/1999/xlink" version="1.1"><rect width="900" height="600" fill="#0c3451"></rect><g><g transform="translate(226 72)"><path d="M0 -147L127.3 -73.5L127.3 73.5L0 147L-127.3 73.5L-127.3 -73.5Z" fill="#297EA6"></path></g><g transform="translate(450 494)"><path d="M0 -98L84.9 -49L84.9 49L0 98L-84.9 49L-84.9 -49Z" fill="#297EA6"></path></g><g transform="translate(862 227)"><path d="M0 -75L65 -37.5L65 37.5L0 75L-65 37.5L-65 -37.5Z" fill="#297EA6"></path></g><g transform="translate(770 581)"><path d="M0 -111L96.1 -55.5L96.1 55.5L0 111L-96.1 55.5L-96.1 -55.5Z" fill="#297EA6"></path></g><g transform="translate(519 14)"><path d="M0 -110L95.3 -55L95.3 55L0 110L-95.3 55L-95.3 -55Z" fill="#297EA6"></path></g><g transform="translate(10 291)"><path d="M0 -119L103.1 -59.5L103.1 59.5L0 119L-103.1 59.5L-103.1 -59.5Z" fill="#297EA6"></path></g><g transform="translate(133 577)"><path d="M0 -125L108.3 -62.5L108.3 62.5L0 125L-108.3 62.5L-108.3 -62.5Z" fill="#297EA6"></path></g></g></svg>