<svg id="visual" viewBox="0 0 900 600" width="900" height="600" xmlns="http://www.w3.org/2000/svg" xmlns:xlink="http://www.w3.org/1999/xlink" version="1.1"><rect x="0" y="0" width="900" height="600" fill="#001220"></rect><path d="M0 364L25 376C50 388 100 412 150 425C200 438 250 440 300 434C350 428 400 414 450 408.2C500 402.3 550 404.7 600 407.5C650 410.3 700 413.7 750 407.5C800 401.3 850 385.7 875 377.8L900 370L900 601L875 601C850 601 800 601 750 601C700 601 650 601 600 601C550 601 500 601 450 601C400 601 350 601 300 601C250 601 200 601 150 601C100 601 50 601 25 601L0 601Z" fill="#715df2"></path><path d="M0 431L25 427C50 423 100 415 150 420.2C200 425.3 250 443.7 300 452.3C350 461 400 460 450 451.5C500 443 550 427 600 420.5C650 414 700 417 750 422.8C800 428.7 850 437.3 875 441.7L900 446L900 601L875 601C850 601 800 601 750 601C700 601 650 601 600 601C550 601 500 601 450 601C400 601 350 601 300 601C250 601 200 601 150 601C100 601 50 601 25 601L0 601Z" fill="#6c52d1"></path><path d="M0 448L25 447.5C50 447 100 446 150 455.3C200 464.7 250 484.3 300 484C350 483.7 400 463.3 450 458.7C500 454 550 465 600 469.3C650 473.7 700 471.3 750 474.5C800 477.7 850 486.3 875 490.7L900 495L900 601L875 601C850 601 800 601 750 601C700 601 650 601 600 601C550 601 500 601 450 601C400 601 350 601 300 601C250 601 200 601 150 601C100 601 50 601 25 601L0 601Z" fill="#6448b1"></path><path d="M0 536L25 534.3C50 532.7 100 529.3 150 530.2C200 531 250 536 300 532.8C350 529.7 400 518.3 450 511C500 503.7 550 500.3 600 502.8C650 505.3 700 513.7 750 519C800 524.3 850 526.7 875 527.8L900 529L900 601L875 601C850 601 800 601 750 601C700 601 650 601 600 601C550 601 500 601 450 601C400 601 350 601 300 601C250 601 200 601 150 601C100 601 50 601 25 601L0 601Z" fill="#5a3f92"></path><path d="M0 545L25 545.5C50 546 100 547 150 551C200 555 250 562 300 558.8C350 555.7 400 542.3 450 541.8C500 541.3 550 553.7 600 559.7C650 565.7 700 565.3 750 565C800 564.7 850 564.3 875 564.2L900 564L900 601L875 601C850 601 800 601 750 601C700 601 650 601 600 601C550 601 500 601 450 601C400 601 350 601 300 601C250 601 200 601 150 601C100 601 50 601 25 601L0 601Z" fill="#4f3675"></path></svg>